<svg width="196" height="53" viewBox="0 0 196 53" fill="none" xmlns="http://www.w3.org/2000/svg">
<path d="M39.1595 43.2746L45.421 40.1052" stroke="#FACD7F" stroke-width="2"/>
<path d="M45.421 40.1052C46.3315 41.8874 46.8833 43.7599 47.0766 45.7225C47.1024 45.9716 47.2033 46.0059 47.3794 45.8256C59.8187 32.8451 54.0403 12.7915 35.8097 9.98926" stroke="#FBE17D" stroke-width="2"/>
<path d="M35.8097 9.98928C31.7985 8.88127 27.7187 8.53556 23.5701 8.95213C22.5136 9.0595 21.5452 8.96931 20.6648 8.68157C15.0281 6.81986 10.274 4.86152 6.14472 1.11878C5.93858 0.929813 5.78827 0.966319 5.69379 1.22829C3.8192 6.42691 4.97874 10.743 7.80029 15.2716C8.0322 15.641 7.95275 15.7312 7.56194 15.5422C5.67661 14.6403 3.91582 13.5323 2.27958 12.2182C2.22986 12.1787 2.17131 12.1518 2.10894 12.1399C2.04657 12.1279 1.98224 12.1313 1.92145 12.1496C1.86066 12.168 1.80522 12.2008 1.75989 12.2453C1.71456 12.2898 1.68068 12.3446 1.66116 12.405C-0.496882 19.0079 2.96242 24.3805 7.20764 29.038C7.42076 29.2721 7.55189 29.5683 7.58127 29.8819C8.73437 42.1151 18.8353 50.831 30.9203 51.2304C31.1522 51.2389 31.2853 51.1294 31.3197 50.9018C31.5301 49.4245 32.2215 48.3616 33.394 47.7131C35.7818 46.3946 37.7036 44.9151 39.1595 43.2746" stroke="#9CA0ED" stroke-width="2"/>
<path d="M35.8097 9.98926L34.7919 12.7271" stroke="#9F8972" stroke-width="2"/>
<path d="M34.7919 12.7271C9.64267 5.19648 8.58619 39.7959 32.6532 37.8247C33.2973 37.7667 33.6903 38.0566 33.8256 38.6557" stroke="#9CA0ED" stroke-width="2"/>
<path d="M33.8256 38.6558C34.4612 41.5933 36.2391 43.1329 39.1595 43.2746" stroke="#9E7574" stroke-width="2"/>
<path d="M32.5887 33.3412C32.6016 34.9431 32.9881 36.4376 33.7483 37.8248C33.9093 38.1211 33.8707 38.3465 33.8256 38.6558" stroke="#FACD7F" stroke-width="2"/>
<path d="M45.421 40.1052C41.8071 35.5121 37.8582 34.8293 32.5887 33.3412" stroke="#FDB604" stroke-width="2"/>
<path d="M32.5887 33.3411C31.9639 25.6817 32.2731 19.8518 34.7919 12.7271" stroke="#FBE17D" stroke-width="2"/>
<path d="M28.7043 19.7166C28.7043 18.6915 28.2971 17.7084 27.5722 16.9835C26.8474 16.2587 25.8642 15.8514 24.8391 15.8514C23.814 15.8514 22.8309 16.2587 22.1061 16.9835C21.3812 17.7084 20.974 18.6915 20.974 19.7166C20.974 20.7417 21.3812 21.7248 22.1061 22.4497C22.8309 23.1745 23.814 23.5817 24.8391 23.5817C25.8642 23.5817 26.8474 23.1745 27.5722 22.4497C28.2971 21.7248 28.7043 20.7417 28.7043 19.7166Z" stroke="#878787" stroke-width="2"/>
<path d="M26.8168 18.3122C26.8168 17.9654 26.679 17.6328 26.4337 17.3875C26.1885 17.1423 25.8559 17.0045 25.5091 17.0045C25.1622 17.0045 24.8296 17.1423 24.5844 17.3875C24.3391 17.6328 24.2014 17.9654 24.2014 18.3122C24.2014 18.659 24.3391 18.9917 24.5844 19.2369C24.8296 19.4822 25.1622 19.6199 25.5091 19.6199C25.8559 19.6199 26.1885 19.4822 26.4337 19.2369C26.679 18.9917 26.8168 18.659 26.8168 18.3122Z" stroke="#878787" stroke-width="2"/>
<path d="M35.8097 9.98928L34.7919 12.7271C9.64268 5.1965 8.5862 39.796 32.6532 37.8247C33.2974 37.7668 33.6903 38.0567 33.8256 38.6558C34.4612 41.5933 36.2392 43.1329 39.1595 43.2746C37.7036 44.9151 35.7818 46.3946 33.394 47.7131C32.2215 48.3616 31.5301 49.4245 31.3197 50.9018C31.2853 51.1294 31.1522 51.2389 30.9203 51.2304C18.8353 50.831 8.73437 42.1151 7.58127 29.8819C7.55189 29.5683 7.42076 29.2721 7.20764 29.038C2.96242 24.3805 -0.496882 19.0079 1.66116 12.405C1.68068 12.3446 1.71456 12.2898 1.75989 12.2453C1.80522 12.2008 1.86066 12.168 1.92145 12.1496C1.98224 12.1313 2.04657 12.1279 2.10894 12.1399C2.17131 12.1518 2.22986 12.1787 2.27958 12.2182C3.91582 13.5323 5.67661 14.6403 7.56194 15.5422C7.95275 15.7312 8.0322 15.641 7.80029 15.2716C4.97874 10.743 3.8192 6.42691 5.69379 1.22829C5.78827 0.966319 5.93858 0.929813 6.14472 1.11878C10.274 4.86152 15.0281 6.81986 20.6648 8.68157C21.5452 8.96931 22.5136 9.0595 23.5701 8.95213C27.7187 8.53556 31.7985 8.88127 35.8097 9.98928Z" fill="#4047E2"/>
<path d="M35.8097 9.98926C54.0403 12.7915 59.8187 32.8451 47.3793 45.8256C47.2033 46.0059 47.1023 45.9716 47.0766 45.7225C46.8833 43.7599 46.3315 41.8874 45.421 40.1052C41.8071 35.5121 37.8582 34.8292 32.5887 33.3412C31.9639 25.6817 32.2731 19.8518 34.7919 12.7271L35.8097 9.98926Z" fill="#FECA01"/>
<path d="M34.7919 12.7271C32.2731 19.8518 31.9639 25.6817 32.5887 33.3412C32.6016 34.943 32.9881 36.4376 33.7483 37.8247C33.9093 38.1211 33.8707 38.3465 33.8256 38.6557C33.6903 38.0566 33.2973 37.7667 32.6532 37.8247C8.58619 39.7959 9.64267 5.19648 34.7919 12.7271ZM28.7043 19.7165C28.7043 18.6914 28.297 17.7083 27.5722 16.9835C26.8473 16.2586 25.8642 15.8514 24.8391 15.8514C23.814 15.8514 22.8309 16.2586 22.1061 16.9835C21.3812 17.7083 20.974 18.6914 20.974 19.7165C20.974 20.7416 21.3812 21.7247 22.1061 22.4496C22.8309 23.1745 23.814 23.5817 24.8391 23.5817C25.8642 23.5817 26.8473 23.1745 27.5722 22.4496C28.297 21.7247 28.7043 20.7416 28.7043 19.7165Z" fill="#F8F8F8"/>
<path d="M28.7043 19.7166C28.7043 20.7417 28.2971 21.7248 27.5722 22.4497C26.8474 23.1745 25.8642 23.5817 24.8391 23.5817C23.814 23.5817 22.8309 23.1745 22.1061 22.4497C21.3812 21.7248 20.974 20.7417 20.974 19.7166C20.974 18.6915 21.3812 17.7084 22.1061 16.9835C22.8309 16.2587 23.814 15.8514 24.8391 15.8514C25.8642 15.8514 26.8474 16.2587 27.5722 16.9835C28.2971 17.7084 28.7043 18.6915 28.7043 19.7166ZM26.8168 18.3122C26.8168 17.9654 26.679 17.6328 26.4338 17.3876C26.1885 17.1423 25.8559 17.0045 25.5091 17.0045C25.1623 17.0045 24.8297 17.1423 24.5844 17.3876C24.3392 17.6328 24.2014 17.9654 24.2014 18.3122C24.2014 18.6591 24.3392 18.9917 24.5844 19.2369C24.8297 19.4822 25.1623 19.62 25.5091 19.62C25.8559 19.62 26.1885 19.4822 26.4338 19.2369C26.679 18.9917 26.8168 18.6591 26.8168 18.3122Z" fill="#322C49"/>
<path d="M25.5091 19.6199C26.2313 19.6199 26.8168 19.0344 26.8168 18.3122C26.8168 17.59 26.2313 17.0045 25.5091 17.0045C24.7868 17.0045 24.2014 17.59 24.2014 18.3122C24.2014 19.0344 24.7868 19.6199 25.5091 19.6199Z" fill="#F8F8F8"/>
<path d="M32.5887 33.3412C37.8582 34.8293 41.8071 35.5121 45.421 40.1052L39.1595 43.2746C36.2392 43.1329 34.4612 41.5933 33.8256 38.6558C33.8707 38.3465 33.9093 38.1211 33.7483 37.8248C32.9881 36.4376 32.6016 34.9431 32.5887 33.3412Z" fill="#FCA206"/>
<path d="M68.66 37.4775C68.4547 37.4775 68.2867 37.4122 68.156 37.2815C68.0253 37.1509 67.96 36.9829 67.96 36.7775V18.5775C67.96 18.3722 68.0253 18.2042 68.156 18.0735C68.2867 17.9429 68.4547 17.8775 68.66 17.8775H81.736C81.9413 17.8775 82.1093 17.9429 82.24 18.0735C82.3707 18.2042 82.436 18.3722 82.436 18.5775V21.2095C82.436 21.4149 82.3707 21.5829 82.24 21.7135C82.1093 21.8442 81.9413 21.9095 81.736 21.9095H72.804V25.6895H81.12C81.3253 25.6895 81.4933 25.7642 81.624 25.9135C81.7547 26.0442 81.82 26.2122 81.82 26.4175V28.8535C81.82 29.0402 81.7547 29.2082 81.624 29.3575C81.4933 29.4882 81.3253 29.5535 81.12 29.5535H72.804V33.4455H81.96C82.1653 33.4455 82.3333 33.5109 82.464 33.6415C82.5947 33.7722 82.66 33.9402 82.66 34.1455V36.7775C82.66 36.9829 82.5947 37.1509 82.464 37.2815C82.3333 37.4122 82.1653 37.4775 81.96 37.4775H68.66ZM90.8848 37.7575C89.9888 37.7575 89.1768 37.6175 88.4488 37.3375C87.7394 37.0389 87.1234 36.6095 86.6008 36.0495C86.0968 35.4709 85.7048 34.7802 85.4248 33.9775C85.1448 33.1562 84.9861 32.2229 84.9488 31.1775C84.9301 30.8042 84.9208 30.4775 84.9208 30.1975C84.9208 29.8989 84.9301 29.5722 84.9488 29.2175C84.9861 28.2095 85.1448 27.3042 85.4248 26.5015C85.7048 25.6989 86.0968 25.0082 86.6008 24.4295C87.1048 23.8509 87.7208 23.4122 88.4488 23.1135C89.1768 22.7962 89.9888 22.6375 90.8848 22.6375C91.8181 22.6375 92.6208 22.7962 93.2928 23.1135C93.9648 23.4122 94.5341 23.8042 95.0008 24.2895V18.2975C95.0008 18.0922 95.0661 17.9242 95.1968 17.7935C95.3274 17.6629 95.4954 17.5975 95.7008 17.5975H99.1168C99.3034 17.5975 99.4621 17.6629 99.5928 17.7935C99.7421 17.9242 99.8168 18.0922 99.8168 18.2975V36.7775C99.8168 36.9829 99.7421 37.1509 99.5928 37.2815C99.4621 37.4122 99.3034 37.4775 99.1168 37.4775H95.9528C95.7474 37.4775 95.5794 37.4122 95.4488 37.2815C95.3181 37.1509 95.2528 36.9829 95.2528 36.7775V35.8815C94.8048 36.4229 94.2261 36.8709 93.5168 37.2255C92.8074 37.5802 91.9301 37.7575 90.8848 37.7575ZM92.3968 34.0055C93.0314 34.0055 93.5261 33.8749 93.8808 33.6135C94.2541 33.3335 94.5248 32.9789 94.6928 32.5495C94.8794 32.1202 94.9821 31.6535 95.0008 31.1495C95.0194 30.7762 95.0288 30.4215 95.0288 30.0855C95.0288 29.7495 95.0194 29.4042 95.0008 29.0495C94.9821 28.5829 94.8794 28.1535 94.6928 27.7615C94.5061 27.3509 94.2261 27.0242 93.8528 26.7815C93.4794 26.5202 92.9941 26.3895 92.3968 26.3895C91.7808 26.3895 91.2861 26.5202 90.9128 26.7815C90.5581 27.0429 90.3061 27.3975 90.1568 27.8455C90.0074 28.2935 89.9141 28.7882 89.8768 29.3295C89.8208 29.9082 89.8208 30.4869 89.8768 31.0655C89.9141 31.6069 90.0074 32.1015 90.1568 32.5495C90.3061 32.9975 90.5581 33.3522 90.9128 33.6135C91.2861 33.8749 91.7808 34.0055 92.3968 34.0055ZM108.465 37.7575C107.401 37.7575 106.449 37.5149 105.609 37.0295C104.788 36.5442 104.144 35.8349 103.677 34.9015C103.21 33.9495 102.977 32.7922 102.977 31.4295V23.6175C102.977 23.4122 103.042 23.2442 103.173 23.1135C103.304 22.9829 103.472 22.9175 103.677 22.9175H107.177C107.382 22.9175 107.55 22.9829 107.681 23.1135C107.812 23.2442 107.877 23.4122 107.877 23.6175V31.2615C107.877 33.0909 108.698 34.0055 110.341 34.0055C111.106 34.0055 111.713 33.7722 112.161 33.3055C112.628 32.8202 112.861 32.1389 112.861 31.2615V23.6175C112.861 23.4122 112.926 23.2442 113.057 23.1135C113.188 22.9829 113.356 22.9175 113.561 22.9175H117.061C117.266 22.9175 117.434 22.9829 117.565 23.1135C117.696 23.2442 117.761 23.4122 117.761 23.6175V36.7775C117.761 36.9829 117.696 37.1509 117.565 37.2815C117.434 37.4122 117.266 37.4775 117.061 37.4775H113.813C113.626 37.4775 113.458 37.4122 113.309 37.2815C113.178 37.1509 113.113 36.9829 113.113 36.7775V35.7135C112.628 36.3855 111.993 36.8989 111.209 37.2535C110.444 37.5895 109.529 37.7575 108.465 37.7575Z" fill="#4047E2"/>
<path d="M122.062 37.4775C121.857 37.4775 121.689 37.4122 121.558 37.2815C121.428 37.1509 121.362 36.9829 121.362 36.7775V18.5775C121.362 18.3722 121.428 18.2042 121.558 18.0735C121.689 17.9429 121.857 17.8775 122.062 17.8775H125.674C125.88 17.8775 126.048 17.9429 126.178 18.0735C126.309 18.2042 126.374 18.3722 126.374 18.5775V25.3255H128.082L132.226 18.4095C132.32 18.2602 132.45 18.1389 132.618 18.0455C132.786 17.9335 133.001 17.8775 133.262 17.8775H137.294C137.481 17.8775 137.63 17.9429 137.742 18.0735C137.854 18.1855 137.91 18.3162 137.91 18.4655C137.91 18.5775 137.873 18.6895 137.798 18.8015L132.59 27.3135L138.302 36.5255C138.358 36.6002 138.386 36.7029 138.386 36.8335C138.386 37.0202 138.321 37.1789 138.19 37.3095C138.078 37.4215 137.929 37.4775 137.742 37.4775H133.598C133.3 37.4775 133.076 37.4122 132.926 37.2815C132.796 37.1509 132.693 37.0389 132.618 36.9455L128.278 29.8055H126.374V36.7775C126.374 36.9829 126.309 37.1509 126.178 37.2815C126.048 37.4122 125.88 37.4775 125.674 37.4775H122.062ZM147.407 37.7575C145.204 37.7575 143.45 37.1602 142.143 35.9655C140.836 34.7709 140.155 32.9975 140.099 30.6455C140.099 30.5149 140.099 30.3469 140.099 30.1415C140.099 29.9362 140.099 29.7775 140.099 29.6655C140.155 28.1909 140.482 26.9309 141.079 25.8855C141.695 24.8215 142.535 24.0189 143.599 23.4775C144.682 22.9175 145.942 22.6375 147.379 22.6375C149.022 22.6375 150.375 22.9642 151.439 23.6175C152.522 24.2709 153.334 25.1575 153.875 26.2775C154.416 27.3975 154.687 28.6762 154.687 30.1135V30.7855C154.687 30.9909 154.612 31.1589 154.463 31.2895C154.332 31.4202 154.174 31.4855 153.987 31.4855H145.027C145.027 31.5042 145.027 31.5322 145.027 31.5695C145.027 31.6069 145.027 31.6442 145.027 31.6815C145.046 32.2229 145.139 32.7175 145.307 33.1655C145.475 33.6135 145.736 33.9682 146.091 34.2295C146.446 34.4909 146.875 34.6215 147.379 34.6215C147.752 34.6215 148.06 34.5655 148.303 34.4535C148.564 34.3229 148.779 34.1829 148.947 34.0335C149.115 33.8655 149.246 33.7255 149.339 33.6135C149.507 33.4269 149.638 33.3149 149.731 33.2775C149.843 33.2215 150.011 33.1935 150.235 33.1935H153.707C153.894 33.1935 154.043 33.2495 154.155 33.3615C154.286 33.4549 154.342 33.5949 154.323 33.7815C154.304 34.0989 154.146 34.4815 153.847 34.9295C153.548 35.3775 153.11 35.8255 152.531 36.2735C151.971 36.7029 151.262 37.0575 150.403 37.3375C149.544 37.6175 148.546 37.7575 147.407 37.7575ZM145.027 28.7135H149.759V28.6575C149.759 28.0602 149.666 27.5375 149.479 27.0895C149.311 26.6415 149.04 26.2962 148.667 26.0535C148.312 25.8109 147.883 25.6895 147.379 25.6895C146.875 25.6895 146.446 25.8109 146.091 26.0535C145.755 26.2962 145.494 26.6415 145.307 27.0895C145.12 27.5375 145.027 28.0602 145.027 28.6575V28.7135ZM158.012 37.4775C157.807 37.4775 157.639 37.4122 157.508 37.2815C157.377 37.1509 157.312 36.9829 157.312 36.7775V23.6175C157.312 23.4122 157.377 23.2442 157.508 23.1135C157.639 22.9829 157.807 22.9175 158.012 22.9175H161.148C161.335 22.9175 161.493 22.9829 161.624 23.1135C161.773 23.2442 161.848 23.4122 161.848 23.6175V33.8095H165.096V23.6175C165.096 23.4122 165.161 23.2442 165.292 23.1135C165.423 22.9829 165.591 22.9175 165.796 22.9175H168.652C168.857 22.9175 169.025 22.9829 169.156 23.1135C169.287 23.2442 169.352 23.4122 169.352 23.6175V33.8095H172.6V23.6175C172.6 23.4122 172.665 23.2442 172.796 23.1135C172.945 22.9829 173.113 22.9175 173.3 22.9175H176.436C176.641 22.9175 176.809 22.9829 176.94 23.1135C177.071 23.2442 177.136 23.4122 177.136 23.6175V36.7775C177.136 36.9829 177.071 37.1509 176.94 37.2815C176.809 37.4122 176.641 37.4775 176.436 37.4775H158.012ZM184.922 37.7575C183.914 37.7575 183.009 37.5709 182.206 37.1975C181.422 36.8055 180.797 36.2829 180.33 35.6295C179.864 34.9762 179.63 34.2389 179.63 33.4175C179.63 32.0922 180.172 31.0469 181.254 30.2815C182.337 29.4975 183.774 28.9655 185.566 28.6855L189.066 28.1535V27.7615C189.066 27.0895 188.926 26.5762 188.646 26.2215C188.366 25.8669 187.853 25.6895 187.106 25.6895C186.584 25.6895 186.154 25.7922 185.818 25.9975C185.501 26.2029 185.249 26.4829 185.062 26.8375C184.894 27.0802 184.661 27.2015 184.362 27.2015H181.226C181.021 27.2015 180.862 27.1455 180.75 27.0335C180.638 26.9029 180.592 26.7535 180.61 26.5855C180.61 26.2495 180.732 25.8669 180.974 25.4375C181.236 24.9895 181.628 24.5509 182.15 24.1215C182.673 23.6922 183.345 23.3375 184.166 23.0575C184.988 22.7775 185.977 22.6375 187.134 22.6375C188.348 22.6375 189.384 22.7775 190.242 23.0575C191.101 23.3375 191.792 23.7295 192.314 24.2335C192.856 24.7375 193.257 25.3349 193.518 26.0255C193.78 26.6975 193.91 27.4442 193.91 28.2655V36.7775C193.91 36.9829 193.836 37.1509 193.686 37.2815C193.556 37.4122 193.397 37.4775 193.21 37.4775H189.962C189.757 37.4775 189.589 37.4122 189.458 37.2815C189.328 37.1509 189.262 36.9829 189.262 36.7775V35.7975C189.02 36.1522 188.693 36.4789 188.282 36.7775C187.872 37.0762 187.386 37.3095 186.826 37.4775C186.285 37.6642 185.65 37.7575 184.922 37.7575ZM186.238 34.5655C186.78 34.5655 187.265 34.4535 187.694 34.2295C188.142 33.9869 188.488 33.6229 188.73 33.1375C188.992 32.6335 189.122 32.0082 189.122 31.2615V30.8695L186.742 31.2895C185.865 31.4389 185.221 31.6722 184.81 31.9895C184.418 32.2882 184.222 32.6429 184.222 33.0535C184.222 33.3709 184.316 33.6415 184.502 33.8655C184.689 34.0895 184.932 34.2669 185.23 34.3975C185.529 34.5095 185.865 34.5655 186.238 34.5655Z" fill="#FCA206"/>
</svg>
